<?xml version="1.0" encoding="UTF-8" standalone="no"?>
<!DOCTYPE svg PUBLIC "-//W3C//DTD SVG 1.1//EN" "http://www.w3.org/Graphics/SVG/1.1/DTD/svg11.dtd">
<svg width="100%" height="100%" viewBox="0 0 316 125" version="1.1" xmlns="http://www.w3.org/2000/svg" xmlns:xlink="http://www.w3.org/1999/xlink" xml:space="preserve" xmlns:serif="http://www.serif.com/" style="fill-rule:evenodd;clip-rule:evenodd;stroke-linejoin:round;stroke-miterlimit:2;">
    <g transform="matrix(1.04116,0,0,1.04805,-23.0988,-255.2)">
        <g transform="matrix(0.869631,0,0,0.869631,-16.867,134.987)">
            <g transform="matrix(37.5741,0,0,37.5741,111.007,184.632)">
                <path d="M0.906,-0.678L0.792,-0.001L0.514,0.005L0.455,-0.346L0.395,-0.021L0.118,-0.011L0.002,-0.678L0.245,-0.699L0.293,-0.294L0.359,-0.699L0.549,-0.699L0.625,-0.289L0.665,-0.699L0.906,-0.678Z" style="fill:rgb(237,34,117);fill-rule:nonzero;"/>
            </g>
            <g transform="matrix(37.5741,0,0,37.5741,143.959,184.632)">
                <path d="M0.641,-0.042L0.398,-0.011L0.369,-0.121L0.258,-0.121L0.233,-0.011L-0.016,-0.035L0.179,-0.686L0.45,-0.699L0.641,-0.042ZM0.352,-0.271L0.314,-0.44L0.278,-0.271L0.352,-0.271Z" style="fill:rgb(237,34,117);fill-rule:nonzero;"/>
            </g>
            <g transform="matrix(37.5741,0,0,37.5741,167.646,184.632)">
                <path d="M0.644,-0.699L0.409,-0.374L0.607,-0.028L0.38,0.012L0.232,-0.199L0.224,0.021L0.021,0.029L0.037,-0.719L0.264,-0.706L0.247,-0.485L0.398,-0.719L0.644,-0.699Z" style="fill:rgb(237,34,117);fill-rule:nonzero;"/>
            </g>
            <g transform="matrix(37.5741,0,0,37.5741,190.893,184.632)">
                <path d="M0.641,-0.042L0.398,-0.011L0.369,-0.121L0.258,-0.121L0.233,-0.011L-0.016,-0.035L0.179,-0.686L0.45,-0.699L0.641,-0.042ZM0.352,-0.271L0.314,-0.44L0.278,-0.271L0.352,-0.271Z" style="fill:rgb(237,34,117);fill-rule:nonzero;"/>
            </g>
            <g transform="matrix(37.5741,0,0,37.5741,214.104,184.632)">
                <path d="M0.509,-0.687L0.481,-0.48C0.472,-0.483 0.463,-0.485 0.453,-0.486C0.444,-0.487 0.434,-0.487 0.425,-0.487C0.401,-0.487 0.378,-0.484 0.356,-0.478C0.334,-0.471 0.315,-0.462 0.298,-0.449C0.281,-0.436 0.268,-0.419 0.258,-0.4C0.248,-0.38 0.243,-0.357 0.243,-0.331C0.243,-0.314 0.246,-0.299 0.251,-0.287C0.257,-0.275 0.264,-0.264 0.274,-0.256C0.284,-0.248 0.295,-0.242 0.309,-0.238C0.322,-0.234 0.337,-0.232 0.353,-0.232C0.365,-0.232 0.377,-0.234 0.39,-0.236C0.403,-0.239 0.416,-0.242 0.429,-0.247C0.441,-0.251 0.454,-0.256 0.466,-0.261C0.478,-0.267 0.489,-0.272 0.499,-0.278L0.479,-0.049C0.467,-0.042 0.453,-0.037 0.438,-0.031C0.423,-0.026 0.408,-0.022 0.393,-0.018C0.377,-0.015 0.361,-0.012 0.346,-0.01C0.33,-0.008 0.315,-0.007 0.301,-0.007C0.259,-0.007 0.221,-0.014 0.185,-0.03C0.149,-0.045 0.118,-0.066 0.092,-0.093C0.065,-0.119 0.045,-0.151 0.03,-0.187C0.014,-0.224 0.007,-0.263 0.007,-0.305C0.007,-0.36 0.015,-0.413 0.031,-0.462C0.047,-0.511 0.07,-0.555 0.101,-0.592C0.132,-0.629 0.17,-0.658 0.216,-0.68C0.262,-0.701 0.314,-0.712 0.374,-0.712C0.396,-0.712 0.42,-0.71 0.443,-0.707C0.467,-0.703 0.489,-0.696 0.509,-0.687Z" style="fill:rgb(237,34,117);fill-rule:nonzero;"/>
            </g>
            <g transform="matrix(37.5741,0,0,37.5741,233.608,184.632)">
                <path d="M0.652,-0.661L0.384,-0.286L0.371,0.02L0.14,0.02L0.146,-0.284L0.006,-0.646L0.255,-0.678L0.294,-0.467L0.418,-0.678L0.652,-0.661Z" style="fill:rgb(237,34,117);fill-rule:nonzero;"/>
            </g>
            <g transform="matrix(37.5741,0,0,37.5741,251.479,184.632)">
                <path d="M0.491,-0.402L0.491,-0.345C0.491,-0.326 0.49,-0.307 0.488,-0.288C0.485,-0.247 0.476,-0.209 0.462,-0.173C0.448,-0.136 0.429,-0.104 0.405,-0.077C0.381,-0.05 0.352,-0.028 0.318,-0.012C0.284,0.004 0.244,0.012 0.2,0.012C0.183,0.012 0.165,0.01 0.146,0.007C0.128,0.004 0.109,0 0.091,-0.006C0.072,-0.012 0.055,-0.019 0.038,-0.028C0.021,-0.036 0.006,-0.046 -0.007,-0.058L0.023,-0.26C0.043,-0.241 0.064,-0.226 0.087,-0.215C0.111,-0.203 0.136,-0.197 0.164,-0.197C0.182,-0.197 0.197,-0.2 0.209,-0.205C0.222,-0.21 0.232,-0.217 0.24,-0.227C0.248,-0.236 0.255,-0.246 0.26,-0.259C0.264,-0.271 0.268,-0.284 0.27,-0.298C0.272,-0.311 0.273,-0.326 0.274,-0.34C0.274,-0.355 0.274,-0.369 0.274,-0.384C0.274,-0.436 0.272,-0.487 0.267,-0.538C0.261,-0.59 0.257,-0.641 0.253,-0.692L0.477,-0.707C0.486,-0.605 0.491,-0.504 0.491,-0.402Z" style="fill:rgb(237,34,117);fill-rule:nonzero;"/>
            </g>
            <g transform="matrix(37.5741,0,0,37.5741,270.8,184.632)">
                <path d="M0.689,-0.7L0.654,-0.038L0.398,-0.015L0.261,-0.369L0.24,-0.008L0.02,-0.008L0.038,-0.7L0.282,-0.712L0.451,-0.36L0.458,-0.692L0.689,-0.7Z" style="fill:rgb(237,34,117);fill-rule:nonzero;"/>
            </g>
            <g transform="matrix(37.5741,0,0,37.5741,297.404,184.632)">
                <path d="M0.652,-0.661L0.384,-0.286L0.371,0.02L0.14,0.02L0.146,-0.284L0.006,-0.646L0.255,-0.678L0.294,-0.467L0.418,-0.678L0.652,-0.661Z" style="fill:rgb(237,34,117);fill-rule:nonzero;"/>
            </g>
            <g transform="matrix(1,0,0.0185462,1,-4.1534,0)">
                <g transform="matrix(45.6594,0,0,45.6594,111.007,223.948)">
                    <path d="M0.689,-0.7L0.654,-0.038L0.398,-0.015L0.261,-0.369L0.24,-0.008L0.02,-0.008L0.038,-0.7L0.282,-0.712L0.451,-0.36L0.458,-0.692L0.689,-0.7Z" style="fill:rgb(237,34,117);fill-rule:nonzero;"/>
                </g>
                <g transform="matrix(45.6594,0,0,45.6594,145.548,223.948)">
                    <path d="M0.289,-0.688L0.235,-0.022L0.029,-0.012L0.029,-0.674L0.289,-0.688Z" style="fill:rgb(237,34,117);fill-rule:nonzero;"/>
                </g>
                <g transform="matrix(45.6594,0,0,45.6594,161.539,223.948)">
                    <path d="M0.487,-0.704C0.485,-0.674 0.484,-0.643 0.482,-0.613C0.48,-0.583 0.478,-0.553 0.476,-0.522L0.269,-0.512L0.264,-0.45L0.409,-0.45L0.398,-0.299L0.252,-0.294L0.247,-0.223L0.454,-0.223C0.452,-0.187 0.45,-0.151 0.448,-0.116C0.446,-0.081 0.444,-0.045 0.442,-0.01L0.021,-0L0.037,-0.704L0.487,-0.704Z" style="fill:rgb(237,34,117);fill-rule:nonzero;"/>
                </g>
                <g transform="matrix(45.6594,0,0,45.6594,185.825,223.948)">
                    <path d="M0.472,-0.536L0.248,-0.234L0.464,-0.234L0.461,-0.027L0.025,-0.01L0.006,-0.201L0.261,-0.533L0.027,-0.516L0.025,-0.712L0.463,-0.712L0.472,-0.536Z" style="fill:rgb(237,34,117);fill-rule:nonzero;"/>
                </g>
                <g transform="matrix(45.6594,0,0,45.6594,210.466,223.948)">
                    <path d="M0.593,-0.174C0.593,-0.147 0.588,-0.124 0.578,-0.104C0.568,-0.084 0.555,-0.068 0.539,-0.054C0.522,-0.041 0.503,-0.029 0.481,-0.021C0.46,-0.012 0.437,-0.005 0.414,-0C0.39,0.004 0.367,0.008 0.343,0.009C0.319,0.011 0.297,0.012 0.277,0.012C0.257,0.012 0.236,0.011 0.214,0.01C0.192,0.008 0.171,0.006 0.149,0.002C0.128,-0.002 0.107,-0.006 0.086,-0.012C0.065,-0.018 0.045,-0.026 0.027,-0.035L0.026,-0.664C0.044,-0.672 0.063,-0.678 0.084,-0.684C0.104,-0.69 0.125,-0.695 0.147,-0.699C0.168,-0.704 0.189,-0.707 0.21,-0.709C0.232,-0.711 0.252,-0.712 0.272,-0.712C0.295,-0.712 0.318,-0.71 0.342,-0.708C0.366,-0.705 0.388,-0.7 0.41,-0.693C0.432,-0.686 0.452,-0.677 0.471,-0.666C0.49,-0.655 0.507,-0.642 0.521,-0.626C0.535,-0.61 0.546,-0.591 0.554,-0.57C0.562,-0.549 0.566,-0.525 0.566,-0.497C0.566,-0.479 0.563,-0.462 0.558,-0.446C0.553,-0.43 0.545,-0.416 0.536,-0.403C0.526,-0.39 0.514,-0.379 0.5,-0.37C0.486,-0.361 0.47,-0.355 0.453,-0.351C0.474,-0.345 0.493,-0.337 0.51,-0.326C0.528,-0.315 0.543,-0.302 0.555,-0.287C0.567,-0.272 0.577,-0.255 0.583,-0.235C0.59,-0.216 0.593,-0.196 0.593,-0.174ZM0.345,-0.452C0.345,-0.462 0.343,-0.47 0.339,-0.476C0.335,-0.483 0.331,-0.488 0.325,-0.493C0.319,-0.497 0.313,-0.5 0.306,-0.502C0.3,-0.504 0.294,-0.505 0.289,-0.505C0.282,-0.505 0.276,-0.504 0.27,-0.502C0.263,-0.5 0.257,-0.498 0.251,-0.495L0.249,-0.387C0.256,-0.387 0.265,-0.387 0.276,-0.389C0.287,-0.39 0.298,-0.393 0.308,-0.397C0.319,-0.402 0.327,-0.408 0.334,-0.417C0.342,-0.425 0.345,-0.437 0.345,-0.452ZM0.276,-0.293C0.266,-0.293 0.257,-0.292 0.249,-0.29L0.247,-0.179C0.251,-0.178 0.256,-0.177 0.261,-0.176C0.266,-0.175 0.27,-0.175 0.275,-0.175C0.282,-0.175 0.289,-0.176 0.297,-0.177C0.306,-0.178 0.313,-0.181 0.32,-0.186C0.327,-0.19 0.333,-0.196 0.338,-0.204C0.343,-0.211 0.345,-0.221 0.345,-0.233C0.345,-0.246 0.343,-0.256 0.338,-0.264C0.333,-0.271 0.328,-0.278 0.321,-0.282C0.314,-0.286 0.306,-0.289 0.298,-0.291C0.29,-0.292 0.283,-0.293 0.276,-0.293Z" style="fill:rgb(237,34,117);fill-rule:nonzero;"/>
                </g>
                <g transform="matrix(45.6594,0,0,45.6594,240.013,223.948)">
                    <path d="M0.438,0.138C0.423,0.152 0.407,0.164 0.389,0.174C0.371,0.184 0.352,0.189 0.332,0.189C0.317,0.189 0.303,0.186 0.29,0.181C0.277,0.176 0.265,0.169 0.255,0.16C0.245,0.151 0.237,0.141 0.231,0.128C0.226,0.116 0.223,0.102 0.223,0.086C0.223,0.069 0.226,0.052 0.234,0.037C0.241,0.022 0.251,0.008 0.262,-0.005L0.021,-0L0.037,-0.704L0.487,-0.704C0.485,-0.674 0.484,-0.643 0.482,-0.613C0.48,-0.583 0.478,-0.553 0.476,-0.522L0.269,-0.512L0.264,-0.45L0.409,-0.45L0.398,-0.299L0.252,-0.294L0.247,-0.223L0.454,-0.223C0.452,-0.187 0.45,-0.151 0.448,-0.116C0.446,-0.081 0.444,-0.045 0.442,-0.01L0.375,-0.008C0.369,-0.002 0.364,0.005 0.359,0.013C0.353,0.02 0.348,0.028 0.344,0.035C0.34,0.042 0.336,0.049 0.333,0.055C0.33,0.062 0.329,0.067 0.329,0.072C0.329,0.078 0.331,0.083 0.335,0.086C0.34,0.09 0.345,0.092 0.351,0.092C0.357,0.092 0.364,0.09 0.372,0.085C0.38,0.08 0.386,0.074 0.39,0.069L0.438,0.138Z" style="fill:rgb(237,34,117);fill-rule:nonzero;"/>
                </g>
                <g transform="matrix(45.6594,0,0,45.6594,264.299,223.948)">
                    <path d="M0.578,-0.388C0.578,-0.342 0.572,-0.301 0.561,-0.264C0.549,-0.228 0.532,-0.195 0.511,-0.167C0.49,-0.138 0.465,-0.114 0.437,-0.093C0.408,-0.073 0.376,-0.056 0.341,-0.043C0.307,-0.03 0.27,-0.02 0.231,-0.013C0.192,-0.007 0.152,-0.004 0.111,-0.004C0.096,-0.004 0.081,-0.004 0.066,-0.005C0.052,-0.006 0.037,-0.007 0.021,-0.009L0.035,-0.664C0.071,-0.675 0.108,-0.684 0.146,-0.688C0.184,-0.693 0.221,-0.695 0.259,-0.695C0.305,-0.695 0.348,-0.688 0.387,-0.674C0.426,-0.66 0.46,-0.64 0.488,-0.614C0.517,-0.587 0.539,-0.555 0.554,-0.517C0.57,-0.479 0.578,-0.436 0.578,-0.388ZM0.378,-0.356C0.378,-0.374 0.376,-0.391 0.372,-0.407C0.368,-0.424 0.362,-0.438 0.352,-0.45C0.343,-0.463 0.331,-0.473 0.317,-0.481C0.303,-0.488 0.285,-0.493 0.266,-0.493L0.246,-0.19C0.266,-0.193 0.283,-0.2 0.299,-0.21C0.315,-0.22 0.329,-0.232 0.341,-0.246C0.352,-0.261 0.361,-0.277 0.367,-0.295C0.374,-0.312 0.377,-0.331 0.378,-0.35L0.378,-0.356Z" style="fill:rgb(237,34,117);fill-rule:nonzero;"/>
                </g>
                <g transform="matrix(45.6594,0,0,45.6594,293.31,223.948)">
                    <path d="M0.689,-0.7L0.654,-0.038L0.398,-0.015L0.261,-0.369L0.24,-0.008L0.02,-0.008L0.038,-0.7L0.282,-0.712L0.451,-0.36L0.458,-0.692L0.689,-0.7Z" style="fill:rgb(237,34,117);fill-rule:nonzero;"/>
                </g>
                <g transform="matrix(45.6594,0,0,45.6594,327.851,223.948)">
                    <path d="M0.289,-0.688L0.235,-0.022L0.029,-0.012L0.029,-0.674L0.289,-0.688Z" style="fill:rgb(237,34,117);fill-rule:nonzero;"/>
                </g>
                <g transform="matrix(45.6594,0,0,45.6594,343.843,223.948)">
                    <path d="M0.644,-0.699L0.409,-0.374L0.607,-0.028L0.38,0.012L0.232,-0.199L0.224,0.021L0.021,0.029L0.037,-0.719L0.264,-0.706L0.247,-0.485L0.398,-0.719L0.644,-0.699Z" style="fill:rgb(237,34,117);fill-rule:nonzero;"/>
                </g>
            </g>
        </g>
        <g transform="matrix(0.230257,0.0416765,-0.0442006,0.306932,182.048,183.124)">
            <g>
                <g transform="matrix(1,0,0,1,499.66,241.657)">
                    <path d="M0,20.573L3.491,20.61L10.663,15.259C10.663,15.259 6.347,13.151 3.647,14.549C3.647,14.549 4.274,13.803 5.221,13.302C5.221,13.302 1.71,13.766 -2.039,15.835L-0.984,12.901L-2.765,14.398C-2.765,14.398 -0.343,6.025 -8.491,1.169L-8.42,4.797L-11.433,2.887C-11.433,2.887 -9.683,7.407 -9.661,13.111C-11.672,8.323 -14.31,6.342 -14.31,6.342C-13.598,7.173 -12.787,10.307 -12.787,10.307C-16.123,4.75 -24.345,5.768 -24.345,5.768C-20.92,6.986 -15.842,15.508 -15.842,15.508L-16.259,15.658C-19.667,15.274 -24.149,15.658 -29.43,18.158L-25.46,18.808L-27.508,19.716L-17.746,27.784L-16.194,27.163L-16.509,28.404C-16.987,28.789 -17.531,29.233 -18.132,29.739C-18.901,30.378 -19.751,31.115 -20.673,31.929C-21.591,32.745 -22.577,33.642 -23.598,34.613C-24.622,35.583 -25.685,36.622 -26.759,37.727C-27.838,38.827 -28.924,39.994 -30.008,41.203C-31.08,42.419 -32.16,43.669 -33.185,44.969L-33.957,45.941C-34.206,46.272 -34.456,46.603 -34.703,46.933C-35.21,47.586 -35.679,48.265 -36.155,48.932C-36.278,49.102 -36.393,49.277 -36.51,49.451C-36.501,49.119 -36.493,48.803 -36.484,48.466C-36.486,47.463 -36.517,46.434 -36.536,45.383C-36.599,44.338 -36.663,43.271 -36.729,42.185C-36.838,41.107 -36.929,40.008 -37.063,38.904C-37.219,37.805 -37.336,36.684 -37.529,35.571C-37.715,34.456 -37.884,33.33 -38.116,32.214C-38.225,31.654 -38.334,31.094 -38.444,30.532L-38.812,28.86C-39.296,26.627 -39.877,24.424 -40.47,22.266C-41.08,20.113 -41.72,18.008 -42.392,15.991C-43.056,13.971 -43.744,12.036 -44.425,10.215C-45.104,8.393 -45.783,6.684 -46.428,5.116C-47.078,3.549 -47.686,2.12 -48.251,0.862C-48.69,-0.128 -49.096,-1.008 -49.456,-1.776L-49.092,-3.505L-47.546,-1.794L-30.556,-5.887L-32.548,-8.253L-27.231,-6.653C-32.266,-12.952 -37.589,-16.142 -42.047,-17.73L-42.471,-18.167C-42.471,-18.167 -31.016,-25.659 -26.034,-25.094C-26.034,-25.094 -35.611,-31.335 -43.11,-26.465C-43.11,-26.465 -40.205,-29.86 -38.82,-30.459C-38.82,-30.459 -43.292,-29.6 -48.685,-24.882C-45.203,-31.94 -40.296,-36.484 -40.296,-36.484L-45.187,-35.941L-42.904,-40.396C-55.945,-39.309 -58.012,-27.463 -58.012,-27.463L-59.316,-30.398L-59.784,-26.121C-63.178,-30.956 -67.249,-33.658 -67.249,-33.658C-66.379,-32.463 -66.053,-31.158 -66.053,-31.158C-68.554,-34.527 -75.184,-34.527 -75.184,-34.527L-69.532,-23.55L-65.18,-21.481C-84.101,-24.339 -87.247,-10.835 -87.247,-10.835L-81.161,-15.943L-82.247,-13.009C-77.03,-13.572 -72.591,-12.719 -70.117,-12.049C-78.485,-10.715 -82.465,-7.031 -82.465,-7.031C-81.16,-7.792 -76.705,-8.117 -76.705,-8.117C-85.072,-4.966 -85.725,6.446 -85.725,6.446C-83.225,2.099 -70.4,-2.684 -70.4,-2.684L-69.966,-0.075L-65.076,-5.446C-67.512,-1.971 -70.49,4.623 -68.346,14.561L-66.424,10.281L-65.944,12.831L-53.556,4.089L-53.843,2.177L-52.21,2.997L-52.468,0.588C-52.247,1.127 -52.012,1.712 -51.766,2.338C-51.269,3.587 -50.736,5.009 -50.17,6.564C-49.609,8.121 -49.02,9.815 -48.437,11.617C-47.852,13.419 -47.266,15.328 -46.709,17.314C-46.142,19.299 -45.616,21.361 -45.116,23.462C-44.637,25.567 -44.173,27.709 -43.803,29.861L-43.52,31.474C-43.441,32.012 -43.361,32.55 -43.281,33.087C-43.106,34.159 -42.994,35.23 -42.865,36.291C-42.727,37.352 -42.666,38.407 -42.563,39.447C-42.483,40.487 -42.446,41.514 -42.385,42.523C-42.368,43.53 -42.352,44.519 -42.337,45.488C-42.365,46.452 -42.377,47.396 -42.412,48.311C-42.478,49.222 -42.542,50.107 -42.603,50.963C-42.703,51.81 -42.8,52.628 -42.895,53.414C-43.027,54.188 -43.157,54.93 -43.277,55.636C-43.331,55.99 -43.408,56.328 -43.489,56.655C-43.567,56.982 -43.642,57.298 -43.714,57.607C-43.787,57.915 -43.857,58.212 -43.925,58.5C-43.995,58.786 -44.089,59.052 -44.165,59.313C-44.324,59.831 -44.47,60.307 -44.601,60.738C-44.628,60.82 -44.655,60.891 -44.682,60.969C-42.261,60.708 -39.859,60.321 -37.464,59.869C-37.321,59.509 -37.177,59.155 -37.028,58.782C-36.76,58.174 -36.467,57.556 -36.178,56.919C-35.861,56.293 -35.534,55.653 -35.204,55.004C-34.843,54.366 -34.493,53.709 -34.109,53.057C-33.712,52.413 -33.337,51.744 -32.909,51.098C-32.487,50.448 -32.073,49.786 -31.62,49.143C-31.396,48.818 -31.172,48.494 -30.95,48.17L-30.254,47.208C-29.326,45.925 -28.343,44.678 -27.362,43.46C-26.369,42.25 -25.37,41.074 -24.371,39.962C-23.375,38.846 -22.386,37.79 -21.432,36.802C-20.479,35.813 -19.557,34.897 -18.696,34.062C-17.833,33.23 -17.034,32.474 -16.313,31.818C-15.954,31.488 -15.612,31.182 -15.298,30.901L-16.233,32.388L-14.909,32.374L-15.705,33.527L-10.417,43.161L-9.293,41.654L-9.403,45.052C-4.845,39.262 -4.687,34.021 -5.169,30.983L-3.692,36.035L-2.579,34.475C-2.579,34.475 4.252,41.669 4.496,45.295C4.496,45.295 7.701,37.656 3.254,32.941C3.254,32.941 6.051,34.571 6.661,35.482C6.661,35.482 5.24,31.817 0.215,28.286C2.039,28.637 5.201,29.492 8.419,31.52L8.645,29.263L10.984,34.526C10.984,34.526 13.23,24.73 0,20.573" style="fill:rgb(237,34,117);fill-rule:nonzero;"/>
                </g>
                <g transform="matrix(1,0,0,1,400.858,237.264)">
                    <path d="M0,-4.264C-0.158,-4.25 -0.383,-4.213 -0.659,-4.143C-1.198,-4 -1.97,-3.685 -2.576,-2.978C-2.873,-2.625 -3.071,-2.221 -3.182,-1.841C-3.301,-1.462 -3.311,-1.105 -3.304,-0.817C-3.299,-0.738 -3.343,-0.665 -3.415,-0.635C-3.487,-0.605 -3.57,-0.623 -3.623,-0.682C-3.622,-0.681 -3.622,-0.682 -3.623,-0.682C-3.822,-0.889 -4.086,-1.13 -4.441,-1.311C-4.789,-1.497 -5.218,-1.637 -5.677,-1.672C-6.606,-1.733 -7.372,-1.398 -7.849,-1.113C-8.093,-0.965 -8.275,-0.829 -8.397,-0.726C-8.519,-0.625 -8.582,-0.564 -8.582,-0.564C-8.582,-0.564 -8.492,-0.565 -8.337,-0.574C-8.183,-0.584 -7.962,-0.598 -7.693,-0.614C-7.157,-0.645 -6.461,-0.676 -5.754,-0.628C-5.049,-0.578 -4.411,-0.425 -3.914,-0.249C-3.672,-0.158 -3.462,-0.08 -3.323,-0.015C-3.237,0.02 -3.071,-0.051 -3.035,-0.137C-2.983,-0.282 -2.893,-0.486 -2.789,-0.722C-2.569,-1.202 -2.232,-1.764 -1.776,-2.304C-1.317,-2.845 -0.808,-3.321 -0.411,-3.682C-0.213,-3.863 -0.048,-4.011 0.067,-4.115C0.183,-4.22 0.245,-4.284 0.245,-4.284C0.245,-4.284 0.157,-4.281 0,-4.264" style="fill:rgb(237,34,117);fill-rule:nonzero;"/>
                </g>
                <g transform="matrix(1,0,0,1,560.925,257.566)">
                    <path d="M0,-4.262C-0.158,-4.248 -0.383,-4.211 -0.658,-4.141C-1.197,-3.998 -1.97,-3.684 -2.575,-2.977C-2.871,-2.624 -3.07,-2.219 -3.181,-1.84C-3.3,-1.46 -3.311,-1.104 -3.302,-0.816L-3.302,-0.814C-3.297,-0.736 -3.342,-0.664 -3.413,-0.634C-3.485,-0.604 -3.568,-0.622 -3.621,-0.681C-3.62,-0.681 -3.62,-0.681 -3.621,-0.681C-3.822,-0.888 -4.085,-1.13 -4.439,-1.31C-4.787,-1.496 -5.217,-1.637 -5.676,-1.671C-6.604,-1.731 -7.369,-1.397 -7.847,-1.112C-8.09,-0.964 -8.273,-0.828 -8.393,-0.725C-8.516,-0.624 -8.58,-0.563 -8.58,-0.563C-8.58,-0.563 -8.489,-0.564 -8.335,-0.573C-8.181,-0.583 -7.959,-0.597 -7.69,-0.613C-7.155,-0.644 -6.458,-0.675 -5.751,-0.627C-5.047,-0.577 -4.409,-0.424 -3.913,-0.248C-3.671,-0.157 -3.462,-0.079 -3.322,-0.014C-3.237,0.02 -3.069,-0.05 -3.035,-0.136C-2.982,-0.281 -2.892,-0.485 -2.787,-0.721C-2.567,-1.201 -2.232,-1.763 -1.776,-2.302C-1.316,-2.843 -0.808,-3.319 -0.411,-3.68C-0.213,-3.861 -0.048,-4.01 0.067,-4.113C0.183,-4.218 0.245,-4.282 0.245,-4.282C0.245,-4.282 0.157,-4.279 0,-4.262" style="fill:rgb(237,34,117);fill-rule:nonzero;"/>
                </g>
                <g transform="matrix(1,0,0,1,542.404,235.302)">
                    <path d="M0,14.242C0.169,13.958 0.35,13.68 0.54,13.409C0.45,13.295 0.376,13.192 0.274,13.069C-0.577,12.079 -2.027,10.767 -4.133,10.211C-5.178,9.945 -6.237,9.936 -7.149,10.089C-8.07,10.226 -8.833,10.567 -9.434,10.875L-9.567,10.967C-9.707,11.063 -9.894,11.053 -10.023,10.943C-10.152,10.832 -10.189,10.649 -10.116,10.496L-10.04,10.341C-9.811,9.707 -9.567,8.906 -9.547,7.976C-9.509,7.052 -9.649,6.003 -10.044,5C-10.861,2.98 -12.344,1.704 -13.434,0.985C-13.992,0.625 -14.464,0.376 -14.805,0.227C-15.143,0.073 -15.335,0 -15.335,0C-15.335,0 -15.243,0.189 -15.065,0.508C-14.888,0.823 -14.634,1.274 -14.325,1.827C-13.716,2.924 -12.939,4.36 -12.324,5.9C-11.713,7.437 -11.384,8.939 -11.253,10.166C-11.198,10.77 -11.149,11.289 -11.143,11.65C-11.13,11.867 -10.812,12.147 -10.593,12.133C-10.235,12.093 -9.713,12.077 -9.108,12.057C-7.876,12.033 -6.344,12.17 -4.742,12.585C-3.135,13.003 -1.613,13.593 -0.449,14.06C-0.284,14.127 -0.148,14.182 0,14.242" style="fill:rgb(237,34,117);fill-rule:nonzero;"/>
                </g>
                <g transform="matrix(1,0,0,1,426.813,262.062)">
                    <path d="M0,-5.758C-0.355,-5.871 -0.874,-5.997 -1.532,-6.096C-2.824,-6.277 -4.778,-6.301 -6.727,-5.326C-7.686,-4.834 -8.487,-4.141 -9.069,-3.423C-9.669,-2.712 -10.017,-1.95 -10.263,-1.323C-10.323,-1.15 -10.485,-1.035 -10.667,-1.034C-10.849,-1.034 -11.012,-1.149 -11.071,-1.321C-11.071,-1.322 -11.072,-1.322 -11.072,-1.323C-11.318,-1.949 -11.665,-2.712 -12.264,-3.423C-12.847,-4.141 -13.646,-4.834 -14.607,-5.326C-16.555,-6.301 -18.51,-6.277 -19.803,-6.096C-20.46,-5.997 -20.98,-5.871 -21.334,-5.757C-21.689,-5.65 -21.882,-5.577 -21.882,-5.577C-21.882,-5.577 -21.688,-5.496 -21.342,-5.375C-21.001,-5.255 -20.512,-5.085 -19.916,-4.875C-18.732,-4.455 -17.202,-3.891 -15.72,-3.143C-14.245,-2.394 -13.007,-1.486 -12.097,-0.652C-11.657,-0.235 -11.276,0.122 -11.033,0.388C-10.879,0.543 -10.456,0.543 -10.301,0.388C-10.059,0.122 -9.679,-0.235 -9.237,-0.652C-8.328,-1.486 -7.089,-2.394 -5.613,-3.143C-4.132,-3.891 -2.6,-4.455 -1.418,-4.875C-0.821,-5.085 -0.332,-5.255 0.009,-5.375C0.353,-5.497 0.548,-5.577 0.548,-5.577C0.548,-5.577 0.355,-5.65 0,-5.758" style="fill:rgb(237,34,117);fill-rule:nonzero;"/>
                </g>
                <g transform="matrix(1,0,0,1,539.761,265.041)">
                    <path d="M0,-5.757C-0.355,-5.87 -0.874,-5.996 -1.532,-6.095C-2.823,-6.276 -4.778,-6.3 -6.727,-5.325C-7.686,-4.833 -8.486,-4.14 -9.069,-3.422C-9.668,-2.711 -10.016,-1.949 -10.262,-1.322C-10.278,-1.276 -10.294,-1.228 -10.309,-1.179C-10.358,-1.024 -10.502,-0.919 -10.664,-0.918C-10.827,-0.917 -10.972,-1.022 -11.022,-1.176C-11.038,-1.226 -11.054,-1.275 -11.071,-1.322C-11.317,-1.948 -11.664,-2.711 -12.264,-3.422C-12.846,-4.14 -13.645,-4.833 -14.606,-5.325C-16.554,-6.3 -18.509,-6.276 -19.802,-6.095C-20.459,-5.996 -20.979,-5.87 -21.332,-5.756C-21.688,-5.649 -21.88,-5.576 -21.88,-5.576C-21.88,-5.576 -21.687,-5.495 -21.341,-5.374C-21,-5.255 -20.511,-5.084 -19.914,-4.874C-18.732,-4.454 -17.201,-3.89 -15.719,-3.142C-14.245,-2.394 -13.006,-1.485 -12.095,-0.651C-11.656,-0.234 -11.275,0.122 -11.032,0.389C-10.878,0.543 -10.455,0.543 -10.301,0.389C-10.058,0.122 -9.678,-0.234 -9.236,-0.651C-8.328,-1.485 -7.089,-2.394 -5.613,-3.142C-4.132,-3.89 -2.6,-4.454 -1.418,-4.874C-0.821,-5.084 -0.332,-5.255 0.009,-5.374C0.353,-5.496 0.548,-5.576 0.548,-5.576C0.548,-5.576 0.355,-5.649 0,-5.757" style="fill:rgb(237,34,117);fill-rule:nonzero;"/>
                </g>
                <g transform="matrix(1,0,0,1,577.919,304.24)">
                    <path d="M0,-39.288L-6.853,-31.979L-13.25,-34.263L-18.275,-29.238L-29.695,-23.299L-37.004,-21.472L-45.227,-22.385L-64.415,-14.162L-107.815,-12.792L-121.977,-7.766L-139.336,0L20.1,-20.558L0,-39.288Z" style="fill:rgb(237,34,117);fill-rule:nonzero;"/>
                </g>
                <g transform="matrix(1,0,0,1,499.66,239.405)">
                    <path d="M0,20.574L3.491,20.61L10.663,15.259C10.663,15.259 6.347,13.151 3.647,14.55C3.647,14.55 4.274,13.803 5.221,13.303C5.221,13.303 1.71,13.766 -2.039,15.835L-0.984,12.902L-2.765,14.398C-2.765,14.398 -0.343,6.026 -8.491,1.17L-8.42,4.798L-11.433,2.888C-11.433,2.888 -9.683,7.408 -9.661,13.112C-11.672,8.323 -14.31,6.342 -14.31,6.342C-13.598,7.174 -12.787,10.308 -12.787,10.308C-16.123,4.751 -24.345,5.769 -24.345,5.769C-20.92,6.986 -15.842,15.508 -15.842,15.508L-16.259,15.659C-19.667,15.274 -24.149,15.659 -29.43,18.159L-25.46,18.809L-27.508,19.716L-17.746,27.785L-16.194,27.163L-16.509,28.404C-16.987,28.79 -17.531,29.234 -18.132,29.739C-18.901,30.379 -19.751,31.116 -20.673,31.929C-21.591,32.746 -22.577,33.643 -23.598,34.614C-24.622,35.583 -25.685,36.623 -26.759,37.728C-27.838,38.827 -28.924,39.995 -30.008,41.203C-31.08,42.42 -32.16,43.67 -33.185,44.97L-33.957,45.941C-34.206,46.273 -34.456,46.603 -34.703,46.934C-35.21,47.586 -35.679,48.266 -36.155,48.933C-36.278,49.103 -36.393,49.278 -36.51,49.451C-36.501,49.119 -36.493,48.804 -36.484,48.466C-36.486,47.463 -36.517,46.434 -36.536,45.384C-36.599,44.339 -36.663,43.271 -36.729,42.185C-36.838,41.108 -36.929,40.009 -37.063,38.905C-37.219,37.805 -37.336,36.685 -37.529,35.571C-37.715,34.457 -37.884,33.331 -38.116,32.214C-38.225,31.655 -38.334,31.094 -38.444,30.533L-38.812,28.86C-39.296,26.628 -39.877,24.425 -40.47,22.266C-41.08,20.113 -41.72,18.008 -42.392,15.992C-43.056,13.971 -43.744,12.037 -44.425,10.216C-45.104,8.394 -45.783,6.685 -46.428,5.116C-47.078,3.55 -47.686,2.12 -48.251,0.863C-48.69,-0.127 -49.096,-1.007 -49.456,-1.775L-49.092,-3.505L-47.546,-1.794L-30.556,-5.886L-32.548,-8.252L-27.231,-6.653C-32.266,-12.951 -37.589,-16.142 -42.047,-17.729L-42.471,-18.166C-42.471,-18.166 -31.016,-25.658 -26.034,-25.093C-26.034,-25.093 -35.611,-31.334 -43.11,-26.464C-43.11,-26.464 -40.205,-29.859 -38.82,-30.458C-38.82,-30.458 -43.292,-29.6 -48.685,-24.881C-45.203,-31.939 -40.296,-36.483 -40.296,-36.483L-45.187,-35.94L-42.904,-40.396C-55.945,-39.309 -58.012,-27.463 -58.012,-27.463L-59.316,-30.397L-59.784,-26.121C-63.178,-30.955 -67.249,-33.658 -67.249,-33.658C-66.379,-32.462 -66.053,-31.157 -66.053,-31.157C-68.554,-34.527 -75.184,-34.527 -75.184,-34.527L-69.532,-23.55L-65.18,-21.48C-84.101,-24.339 -87.247,-10.834 -87.247,-10.834L-81.161,-15.942L-82.247,-13.008C-77.03,-13.571 -72.591,-12.718 -70.117,-12.048C-78.485,-10.714 -82.465,-7.031 -82.465,-7.031C-81.16,-7.791 -76.705,-8.117 -76.705,-8.117C-85.072,-4.966 -85.725,6.447 -85.725,6.447C-83.225,2.099 -70.4,-2.683 -70.4,-2.683L-69.966,-0.075L-65.076,-5.445C-67.512,-1.97 -70.49,4.624 -68.346,14.562L-66.424,10.282L-65.944,12.832L-53.556,4.09L-53.843,2.178L-52.21,2.998L-52.468,0.589C-52.247,1.128 -52.012,1.713 -51.766,2.339C-51.269,3.588 -50.736,5.01 -50.17,6.565C-49.609,8.122 -49.02,9.815 -48.437,11.618C-47.852,13.42 -47.266,15.328 -46.709,17.315C-46.142,19.299 -45.616,21.362 -45.116,23.463C-44.637,25.568 -44.173,27.709 -43.803,29.862L-43.52,31.475C-43.441,32.012 -43.361,32.551 -43.281,33.087C-43.106,34.159 -42.994,35.231 -42.865,36.292C-42.727,37.353 -42.666,38.408 -42.563,39.448C-42.483,40.488 -42.446,41.515 -42.385,42.523C-42.368,43.531 -42.352,44.52 -42.337,45.489C-42.365,46.453 -42.377,47.397 -42.412,48.312C-42.478,49.222 -42.542,50.107 -42.603,50.963C-42.703,51.811 -42.8,52.629 -42.895,53.414C-43.027,54.189 -43.157,54.931 -43.277,55.636C-43.331,55.991 -43.408,56.329 -43.489,56.655C-43.567,56.982 -43.642,57.299 -43.714,57.607C-43.787,57.915 -43.857,58.213 -43.925,58.5C-43.995,58.786 -44.089,59.052 -44.165,59.313C-44.324,59.831 -44.47,60.308 -44.601,60.738C-44.628,60.821 -44.655,60.891 -44.682,60.97C-42.261,60.708 -39.859,60.322 -37.464,59.87C-37.321,59.509 -37.177,59.156 -37.028,58.782C-36.76,58.175 -36.467,57.556 -36.178,56.919C-35.861,56.294 -35.534,55.654 -35.204,55.005C-34.843,54.367 -34.493,53.71 -34.109,53.058C-33.712,52.413 -33.337,51.745 -32.909,51.099C-32.487,50.449 -32.073,49.787 -31.62,49.143C-31.396,48.819 -31.172,48.495 -30.95,48.17L-30.254,47.209C-29.326,45.925 -28.343,44.678 -27.362,43.46C-26.369,42.251 -25.37,41.075 -24.371,39.963C-23.375,38.846 -22.386,37.79 -21.432,36.803C-20.479,35.813 -19.557,34.898 -18.696,34.063C-17.833,33.23 -17.034,32.475 -16.313,31.819C-15.954,31.489 -15.612,31.183 -15.298,30.902L-16.233,32.389L-14.909,32.374L-15.705,33.528L-10.417,43.162L-9.293,41.654L-9.403,45.052C-4.845,39.263 -4.687,34.021 -5.169,30.984L-3.692,36.036L-2.579,34.476C-2.579,34.476 4.252,41.669 4.496,45.296C4.496,45.296 7.701,37.656 3.254,32.942C3.254,32.942 6.051,34.571 6.661,35.483C6.661,35.483 5.24,31.817 0.215,28.287C2.039,28.637 5.201,29.493 8.419,31.52L8.645,29.264L10.984,34.526C10.984,34.526 13.23,24.731 0,20.574" style="fill:rgb(237,34,117);fill-rule:nonzero;"/>
                </g>
            </g>
        </g>
        <g transform="matrix(0.320375,-0.0800262,0.0792815,0.358614,-39.029,195.046)">
            <g transform="matrix(1,0,0,1,312.137,217.585)">
                <path d="M0,25.672C2.875,25.672 5.206,22.822 5.206,16.92C5.206,11.017 0,0 0,0C0,0 -5.206,11.017 -5.206,16.92C-5.206,22.822 -2.875,25.672 0,25.672" style="fill:rgb(237,34,117);fill-rule:nonzero;"/>
            </g>
            <g transform="matrix(1,0,0,1,184.331,371.062)">
                <path d="M0,0C0,-2.875 -2.85,-5.207 -8.751,-5.207C-14.655,-5.207 -25.671,0 -25.671,0C-25.671,0 -14.655,5.207 -8.751,5.207C-2.85,5.207 0,2.875 0,0" style="fill:rgb(237,34,117);fill-rule:nonzero;"/>
            </g>
            <g transform="matrix(1,0,0,1,221.765,477.553)">
                <path d="M0,-16.118C-2.033,-18.152 -5.698,-17.784 -9.871,-13.611C-14.043,-9.437 -18.152,2.034 -18.152,2.034C-18.152,2.034 -6.681,-2.074 -2.508,-6.247C1.666,-10.421 2.032,-14.086 0,-16.118" style="fill:rgb(237,34,117);fill-rule:nonzero;"/>
            </g>
            <g transform="matrix(1,0,0,1,221.765,264.571)">
                <path d="M0,16.117C2.032,14.085 1.666,10.421 -2.506,6.248C-6.681,2.074 -18.152,-2.034 -18.152,-2.034C-18.152,-2.034 -14.043,9.438 -9.869,13.612C-5.698,17.784 -2.033,18.151 0,16.117" style="fill:rgb(237,34,117);fill-rule:nonzero;"/>
            </g>
            <g transform="matrix(1,0,0,1,266.163,513.233)">
                <path d="M0,-22.918C-2.682,-23.953 -5.882,-22.135 -8.006,-16.626C-10.128,-11.12 -9.234,1.035 -9.234,1.035C-9.234,1.035 -0.413,-7.374 1.71,-12.88C3.834,-18.389 2.683,-21.885 0,-22.918" style="fill:rgb(237,34,117);fill-rule:nonzero;"/>
            </g>
            <g transform="matrix(1,0,0,1,358.111,228.891)">
                <path d="M0,22.921C2.682,23.954 5.882,22.135 8.005,16.627C10.128,11.12 9.235,-1.033 9.235,-1.033C9.235,-1.033 0.413,7.374 -1.71,12.882C-3.835,18.389 -2.682,21.886 0,22.921" style="fill:rgb(237,34,117);fill-rule:nonzero;"/>
            </g>
            <g transform="matrix(1,0,0,1,192.886,318.792)">
                <path d="M0,6.296C1.035,3.614 -0.786,0.414 -6.293,-1.709C-11.8,-3.833 -23.952,-2.937 -23.952,-2.937C-23.952,-2.937 -15.547,5.883 -10.037,8.006C-4.531,10.129 -1.035,8.978 0,6.296" style="fill:rgb(237,34,117);fill-rule:nonzero;"/>
            </g>
            <g transform="matrix(1,0,0,1,195.306,429.976)">
                <path d="M0,-7.099C-1.167,-9.726 -4.716,-10.701 -10.112,-8.31C-15.507,-5.916 -23.467,3.309 -23.467,3.309C-23.467,3.309 -11.286,3.602 -5.891,1.208C-0.494,-1.184 1.165,-4.472 0,-7.099" style="fill:rgb(237,34,117);fill-rule:nonzero;"/>
            </g>
            <g transform="matrix(1,0,0,1,260.323,231.929)">
                <path d="M0,22.301C2.628,21.135 3.604,17.586 1.211,12.191C-1.181,6.794 -10.408,-1.165 -10.408,-1.165C-10.408,-1.165 -10.7,11.017 -8.307,16.414C-5.915,21.807 -2.629,23.466 0,22.301" style="fill:rgb(237,34,117);fill-rule:nonzero;"/>
            </g>
            <g transform="matrix(1,0,0,1,205.198,361.413)">
                <path d="M0,16.922C0,-51.793 55.705,-107.497 124.42,-107.497C137.383,-107.497 149.882,-105.512 161.633,-101.834C145.848,-109.08 128.288,-113.127 109.782,-113.127C41.068,-113.127 -14.637,-57.423 -14.637,11.294C-14.637,67.043 22.033,114.229 72.569,130.049C29.744,110.387 0,67.131 0,16.922" style="fill:rgb(237,34,117);fill-rule:nonzero;"/>
            </g>
        </g>
    </g>
</svg>
